PathFileType	4	(X/Y/Z)	/Users/itak/Documents/Research/Walk-IL/dataset/trc/00153_00007.trc
DataRate	CameraRate	NumFrames	NumMarkers	Units	OrigDataRate	OrigDataStartFrame	OrigNumFrames
100.000000	100.000000	4	53	mm	100.000000	196	525
Frame#	Time	RPSI			LPSI			L3			STRN			T10			C7			CLAV			RBAK			LBAK			LSHO			LUPA			LAEL			LAOL			LWTS			LWPS			LFRA			LIFD			LHPS			LHTS			RSHO			RUPA			RAEL			RAOL			RWTS			RWPS			RFRA			RIFD			RHTS			RHPS			RBHD			LFHD			RFHD			LBHD			LHIP			RHIP			RASI			LASI			LKNE			LTHI			LANK			LTIP			LTOE			LMT1			LMT5			LHEE			RKNE			RTHI			RANK			RTIP			RTOE			RMT1			RMT5			RHEE			
		X1	Y1	Z1	X2	Y2	Z2	X3	Y3	Z3	X4	Y4	Z4	X5	Y5	Z5	X6	Y6	Z6	X7	Y7	Z7	X8	Y8	Z8	X9	Y9	Z9	X10	Y10	Z10	X11	Y11	Z11	X12	Y12	Z12	X13	Y13	Z13	X14	Y14	Z14	X15	Y15	Z15	X16	Y16	Z16	X17	Y17	Z17	X18	Y18	Z18	X19	Y19	Z19	X20	Y20	Z20	X21	Y21	Z21	X22	Y22	Z22	X23	Y23	Z23	X24	Y24	Z24	X25	Y25	Z25	X26	Y26	Z26	X27	Y27	Z27	X28	Y28	Z28	X29	Y29	Z29	X30	Y30	Z30	X31	Y31	Z31	X32	Y32	Z32	X33	Y33	Z33	X34	Y34	Z34	X35	Y35	Z35	X36	Y36	Z36	X37	Y37	Z37	X38	Y38	Z38	X39	Y39	Z39	X40	Y40	Z40	X41	Y41	Z41	X42	Y42	Z42	X43	Y43	Z43	X44	Y44	Z44	X45	Y45	Z45	X46	Y46	Z46	X47	Y47	Z47	X48	Y48	Z48	X49	Y49	Z49	X50	Y50	Z50	X51	Y51	Z51	X52	Y52	Z52	X53	Y53	Z53	

197	1.96	-920.039794921875	1118.037963867188	-562.9465942382812	-919.2550659179688	1115.358276367188	-698.9834594726562	-924.1575317382812	1155.595703125	-635.0686645507812	-691.58642578125	1344.009887695312	-630.3301391601562	-947.8733520507812	1308.9794921875	-640.6046142578125	-894.9024047851562	1599.805541992188	-654.140625	-718.7559814453125	1480.909057617188	-633.705810546875	-963.1453857421875	1417.77734375	-568.6094970703125	-894.3956298828125	1579.773315429688	-756.1195068359375	-804.186279296875	1560.009765625	-818.1749877929688	-826.001953125	1429.530151367188	-891.2230834960938	-824.5067749023438	1209.437866210938	-910.9093017578125	-895.4983520507812	1201.157958984375	-861.8638305664062	-738.35107421875	950.7464599609375	-850.6641235351562	-814.417724609375	926.3367919921875	-887.3489379882812	-810.7705078125	1092.525268554688	-911.1770629882812	-731.7442626953125	758.6859741210938	-823.5320434570312	-787.0381469726562	850.9113159179688	-882.133544921875	-723.3518676757812	862.2027587890625	-857.20751953125	-851.576416015625	1577.270874023438	-468.9295043945312	-877.0074462890625	1505.683227539062	-405.8378601074219	-905.8955688476562	1211.650756835938	-383.981201171875	-904.6009521484375	1210.058471679688	-480.8304748535156	-768.8639526367188	964.9580078125	-386.312255859375	-844.79052734375	950.400634765625	-359.0658874511719	-885.8763427734375	1137.858764648438	-366.1112365722656	-749.627197265625	769.1340942382812	-401.6169738769531	-743.3203125	856.1449584960938	-378.7882995605469	-810.7328491210938	849.669921875	-352.5820007324219	-858.9073486328125	1762.966064453125	-576.065673828125	-668.2357177734375	1825.138549804688	-664.1207275390625	-697.4013061523438	1821.985473632812	-537.695556640625	-836.7999267578125	1770.472412109375	-709.5226440429688	-828.5811157226562	1020.022583007812	-804.3251342773438	-793.7794799804688	1023.633117675781	-442.2685241699219	-712.2537841796875	1091.16650390625	-498.5044250488281	-719.43408203125	1083.5771484375	-762.6336059570312	-753.3192138671875	508.1460266113281	-787.4349365234375	-786.3318481445312	660.9454956054688	-806.1902465820312	-1190.454833984375	187.5053558349609	-796.3047485351562	-990.9396362304688	369.909912109375	-818.1754150390625	-1026.998291015625	46.7525634765625	-734.0507202148438	-1078.864501953125	98.86007690429688	-701.7056884765625	-1120.090942382812	85.56687927246094	-806.77490234375	-1226.914184570312	249.6665344238281	-739.4498901367188	-721.763427734375	537.8663330078125	-522.038330078125	-747.2169189453125	810.7804565429688	-462.1390380859375	-791.4879760742188	25.67812156677246	-582.0960693359375	-733.6594848632812	400.0378112792969	-520.4996948242188	-556.8875732421875	41.58644104003906	-620.8139038085938	-614.2410278320312	32.41714477539062	-664.4044189453125	-659.9616088867188	38.80318069458008	-553.1614990234375	-843.4390258789062	29.68612289428711	-632.7656860351562	
198	1.97	-912.6217041015625	1118.2109375	-562.7298583984375	-911.2306518554688	1115.532836914062	-698.770751953125	-916.5296630859375	1155.795776367188	-634.73388671875	-684.26904296875	1344.950439453125	-628.8786010742188	-940.3610229492188	1309.271240234375	-639.9602661132812	-887.9906616210938	1600.334106445312	-653.206787109375	-711.6660766601562	1481.791748046875	-632.4695434570312	-955.9473266601562	1418.192504882812	-567.6961669921875	-887.2310180664062	1580.281372070312	-755.1149291992188	-796.947509765625	1560.689086914062	-817.1212158203125	-818.37744140625	1430.071655273438	-890.0262451171875	-815.9407348632812	1210.015991210938	-909.6558837890625	-886.653564453125	1201.223510742188	-860.2949829101562	-726.6140747070312	952.5149536132812	-849.4644775390625	-802.8193969726562	927.0752563476562	-885.504150390625	-801.0584106445312	1093.23974609375	-909.79931640625	-717.437744140625	760.581298828125	-822.0310668945312	-774.4054565429688	852.01904296875	-880.354736328125	-710.4785766601562	864.2252197265625	-856	-844.8695068359375	1577.928344726562	-467.9449768066406	-869.8897094726562	1506.234130859375	-404.7483825683594	-896.25830078125	1211.97412109375	-381.9245910644531	-895.4022216796875	1210.075561523438	-478.7442016601562	-756.2337646484375	966.9979248046875	-384.0150756835938	-831.9127197265625	951.5306396484375	-356.498291015625	-875.2742309570312	1138.423217773438	-363.8989562988281	-734.3322143554688	771.6324462890625	-398.6607055664062	-729.2926025390625	858.5744018554688	-376.1314086914062	-796.5257568359375	851.2938842773438	-349.7208862304688	-851.9768676757812	1763.6376953125	-575.1016845703125	-660.9060668945312	1825.8271484375	-662.2801513671875	-690.6165771484375	1822.57666015625	-535.986083984375	-829.2904663085938	1771.250854492188	-708.4591064453125	-818.917236328125	1020.58984375	-803.4220581054688	-787.2015991210938	1024.00244140625	-441.2090759277344	-705.3863525390625	1091.954956054688	-496.7079162597656	-710.696044921875	1084.694702148438	-760.801513671875	-732.68212890625	509.972412109375	-785.0061645507812	-769.1602172851562	662.1010131835938	-804.6131591796875	-1168.857177734375	189.1799621582031	-799.2584838867188	-970.051513671875	371.7049560546875	-818.0435791015625	-1002.406188964844	49.75018310546875	-740.064697265625	-1055.329956054688	100.6951141357422	-706.5424194335938	-1096.025512695312	89.28389739990234	-812.1329956054688	-1207.02685546875	249.0318145751953	-741.1530151367188	-719.6224365234375	537.2788696289062	-520.7559204101562	-742.1444091796875	810.6685180664062	-461.044921875	-791.4779663085938	25.7033805847168	-582.1181640625	-732.3740844726562	399.5877990722656	-519.5167236328125	-556.821044921875	41.49618530273438	-620.8575439453125	-614.3348999023438	32.34247589111328	-664.3193969726562	-659.9833984375	38.71390914916992	-553.0525512695312	-843.4935302734375	29.74611854553223	-632.6842651367188	
199	1.98	-905.2828979492188	1118.376831054688	-562.5733642578125	-903.2184448242188	1115.758544921875	-698.6146240234375	-908.9382934570312	1156.020263671875	-634.4558715820312	-676.989990234375	1345.869873046875	-627.357666015625	-932.9033813476562	1309.567016601562	-639.3736572265625	-881.1031494140625	1600.832275390625	-652.337158203125	-704.6238403320312	1482.65966796875	-631.19677734375	-948.843505859375	1418.5869140625	-566.8817749023438	-880.0462646484375	1580.764526367188	-754.1849365234375	-789.643310546875	1561.358642578125	-816.074462890625	-810.6544799804688	1430.603881835938	-888.855712890625	-807.259033203125	1210.597900390625	-908.4169921875	-877.7677612304688	1201.317138671875	-858.8349609375	-714.943603515625	954.2910766601562	-848.173583984375	-791.21826171875	927.8428955078125	-883.683837890625	-791.280029296875	1093.9658203125	-908.42919921875	-703.3234252929688	762.5001220703125	-820.4027709960938	-761.7853393554688	853.1591796875	-878.5560913085938	-697.7223510742188	866.2470092773438	-854.6853637695312	-838.2984619140625	1578.591430664062	-467.0102844238281	-862.9166870117188	1506.77001953125	-403.7199401855469	-886.779052734375	1212.332153320312	-379.9201354980469	-886.2841796875	1210.109741210938	-476.7222595214844	-743.6513671875	969.1705322265625	-381.6666564941406	-819.085693359375	952.7601318359375	-353.9383544921875	-864.8178100585938	1139.03515625	-361.7238464355469	-718.961669921875	774.331298828125	-395.6458129882812	-715.2409057617188	861.18115234375	-373.4034423828125	-782.334716796875	853.0515747070312	-346.8497924804688	-845.0418701171875	1764.298095703125	-574.1411743164062	-653.5838623046875	1826.461669921875	-660.4651489257812	-683.8330688476562	1823.119384765625	-534.3035278320312	-821.8073120117188	1772.033569335938	-707.4158935546875	-809.2464599609375	1021.224060058594	-802.5446166992188	-780.755126953125	1024.311157226562	-440.1683959960938	-698.6409912109375	1092.689819335938	-494.8598327636719	-701.9957275390625	1085.808959960938	-758.9498291015625	-712.3195190429688	512.1709594726562	-782.3572998046875	-752.2158813476562	663.4825439453125	-802.9264526367188	-1146.228393554688	189.6825714111328	-802.2195434570312	-948.9713745117188	373.1913146972656	-817.7282104492188	-976.5000610351562	52.42728424072266	-745.403076171875	-1030.751831054688	101.8544692993164	-710.9935913085938	-1070.591796875	92.21690368652344	-817.1690673828125	-1186.395874023438	247.1359558105469	-743.027587890625	-717.6361083984375	536.6884765625	-519.4536743164062	-737.1968994140625	810.5322875976562	-459.94580078125	-791.4729614257812	25.7296199798584	-582.14453125	-731.2288818359375	399.1505432128906	-518.5354614257812	-556.766357421875	41.41650009155273	-620.881103515625	-614.4630737304688	32.25746154785156	-664.2443237304688	-660.0130615234375	38.63373184204102	-552.9284057617188	-843.5739135742188	29.78661918640137	-632.5968627929688	
200	1.99	-898.0177612304688	1118.540161132812	-562.4710693359375	-895.19970703125	1116.031982421875	-698.5065307617188	-901.3765258789062	1156.266479492188	-634.2302856445312	-669.7432861328125	1346.759765625	-625.7623291015625	-925.4743041992188	1309.8583984375	-638.8349609375	-874.2169189453125	1601.291259765625	-651.518798828125	-697.615478515625	1483.504760742188	-629.8812255859375	-941.81591796875	1418.956420898438	-566.1565551757812	-872.8330078125	1581.216918945312	-753.3215942382812	-782.26708984375	1562.0048828125	-815.0234375	-802.817626953125	1431.121459960938	-887.7044067382812	-798.4365234375	1211.177124023438	-907.1993408203125	-868.8368530273438	1201.430297851562	-857.5046997070312	-703.3572387695312	956.0572509765625	-846.7832641601562	-779.6029663085938	928.6301879882812	-881.898193359375	-781.4266967773438	1094.694213867188	-907.0725708007812	-689.4197998046875	764.4243774414062	-818.6416015625	-749.1819458007812	854.3168334960938	-876.7372436523438	-685.1036987304688	868.2499389648438	-853.2476806640625	-831.8443603515625	1579.253295898438	-466.1141967773438	-856.07763671875	1507.287231445312	-402.7456970214844	-877.4729614257812	1212.71923828125	-377.966064453125	-877.25927734375	1210.164794921875	-474.7645874023438	-731.1427612304688	971.4701538085938	-379.2810363769531	-806.3262329101562	954.0840454101562	-351.3976440429688	-854.5303955078125	1139.688232421875	-359.5909729003906	-703.5592651367188	777.2046508789062	-392.591064453125	-701.20068359375	863.9578247070312	-370.6290283203125	-768.18212890625	854.9386596679688	-343.9892578125	-838.103759765625	1764.952758789062	-573.1886596679688	-646.2620239257812	1827.037109375	-658.6700439453125	-677.0506591796875	1823.605712890625	-532.6436157226562	-814.3466186523438	1772.824829101562	-706.392822265625	-799.5907592773438	1021.9208984375	-801.6909790039062	-774.4290771484375	1024.556762695312	-439.1467895507812	-692.0121459960938	1093.358276367188	-492.9715881347656	-693.3296508789062	1086.915893554688	-757.0779418945312	-692.2852783203125	514.7015991210938	-779.491455078125	-735.521728515625	665.0769653320312	-801.1403198242188	-1122.632568359375	188.9949798583984	-805.15478515625	-927.7117309570312	374.3099975585938	-817.2636108398438	-949.4523315429688	54.71883392333984	-749.943359375	-1005.269592285156	102.3306198120117	-714.9354248046875	-1043.952392578125	94.29830169677734	-821.7659301757812	-1165.01171875	244.0271759033203	-745.0978393554688	-715.7645263671875	536.1018676757812	-518.1445922851562	-732.3840942382812	810.3700561523438	-458.8474426269531	-791.4735107421875	25.7529468536377	-582.1695556640625	-730.1644287109375	398.73193359375	-517.5757446289062	-556.7150268554688	41.33844757080078	-620.879150390625	-614.616943359375	32.16777801513672	-664.1896362304688	-660.0465087890625	38.56110763549805	-552.7889404296875	-843.6705322265625	29.80215835571289	-632.5203247070312	
